<?xml version="1.0" encoding="UTF-8"?>
<!DOCTYPE svg PUBLIC "-//W3C//DTD SVG 1.1//EN" "http://www.w3.org/Graphics/SVG/1.1/DTD/svg11.dtd">
<!-- Creator: CorelDRAW X7 -->
<svg xmlns="http://www.w3.org/2000/svg" xml:space="preserve" width="52.9166mm" height="52.9166mm" version="1.1" style="shape-rendering:geometricPrecision; text-rendering:geometricPrecision; image-rendering:optimizeQuality; fill-rule:evenodd; clip-rule:evenodd"
viewBox="0 0 5292 5292"
 xmlns:xlink="http://www.w3.org/1999/xlink">
 <defs>
  <style type="text/css">
   <![CDATA[
    .fil18 {fill:#CBD3D6}
    .fil0 {fill:#C1E7F5}
    .fil1 {fill:#C5DFE8}
    .fil2 {fill:#C6DCE4}
    .fil3 {fill:#C7DBE2}
    .fil5 {fill:#C8D9DF}
    .fil4 {fill:#C8D9E0}
    .fil9 {fill:#C9D6DB}
    .fil8 {fill:#C9D7DC}
    .fil7 {fill:#C9D7DD}
    .fil6 {fill:#C9D8DE}
    .fil14 {fill:#CAD4D8}
    .fil13 {fill:#CAD5D8}
    .fil12 {fill:#CAD5D9}
    .fil11 {fill:#CAD6DA}
    .fil10 {fill:#CAD6DB}
    .fil17 {fill:#CBD3D6}
    .fil16 {fill:#CBD3D7}
    .fil15 {fill:#CBD4D7}
   ]]>
  </style>
     <clipPath id="id0">
      <path d="M671 1570l2825 0 917 2087 -2825 0 -917 -2087z"/>
     </clipPath>
 </defs>
 <g id="Plan_x0020_1">
  <metadata id="CorelCorpID_0Corel-Layer"/>
  <g id="_2383027765488">
   <g>
    <g style="clip-path:url(#id0)">
     <image x="671" y="1570" width="3742" height="2087" xlink:href="cloud_Images\cloud_ImgID1.png"/>
    </g>
   </g>
   <path class="fil0" d="M1620 1951c114,-149 294,-244 497,-244 247,0 461,143 561,350 20,-4 40,-6 60,-6 147,0 265,106 265,238 0,21 -3,41 -9,61 252,67 432,247 432,457 0,269 -293,487 -654,487 -61,0 -120,-6 -176,-18 -93,93 -222,150 -366,150 -153,0 -291,-65 -384,-169 -104,104 -252,169 -417,169 -314,0 -569,-237 -569,-529 0,-237 168,-438 400,-505 -19,-40 -30,-84 -30,-131 0,-175 146,-316 326,-316 22,0 43,2 64,6z"/>
   <g>
    <path class="fil1" d="M1639 1967c111,-141 285,-232 481,-231 238,1 444,138 541,337 20,-3 41,-3 62,-1 140,2 253,106 253,233 0,22 -3,44 -10,64 239,67 409,239 407,441 -1,258 -283,467 -630,467 -60,1 -119,-4 -175,-15 -91,88 -217,142 -357,141 -148,0 -281,-64 -372,-164 -101,97 -244,158 -402,156 -300,-2 -543,-230 -543,-510 0,-229 160,-422 382,-488 -17,-40 -25,-84 -23,-130 2,-168 143,-303 316,-304 24,-1 47,0 70,4z"/>
    <path class="fil2" d="M1657 1984c108,-134 277,-220 465,-219 229,2 427,134 521,324 22,-1 43,1 64,5 134,4 242,104 242,228 0,23 -4,46 -11,67 226,65 386,231 382,425 -4,246 -273,445 -605,447 -61,1 -119,-3 -176,-14 -89,84 -212,135 -347,134 -143,-2 -272,-64 -360,-161 -98,92 -235,147 -387,143 -286,-3 -518,-222 -518,-491 0,-219 154,-405 365,-470 -15,-39 -21,-83 -17,-128 3,-161 140,-292 307,-293 25,-2 50,-1 75,3z"/>
    <path class="fil3" d="M1675 2001c105,-127 268,-208 449,-206 220,3 410,129 501,311 23,0 44,4 65,10 129,5 232,103 232,222 0,25 -4,49 -12,71 212,64 362,223 357,408 -6,235 -264,425 -581,427 -60,3 -119,-1 -175,-11 -88,79 -208,127 -338,125 -139,-3 -264,-62 -349,-156 -95,85 -227,136 -371,130 -272,-6 -492,-215 -492,-472 0,-210 145,-389 347,-452 -13,-40 -17,-83 -12,-128 6,-154 138,-278 299,-281 26,-2 53,-2 80,2z"/>
    <path class="fil4" d="M1692 2018c103,-120 260,-196 434,-193 210,3 392,124 481,297 23,3 45,8 66,16 123,7 221,102 221,217 0,26 -5,51 -13,75 199,62 339,214 332,391 -8,223 -254,404 -557,407 -59,4 -118,0 -175,-9 -86,75 -202,120 -328,116 -134,-3 -254,-61 -337,-151 -92,79 -218,125 -356,117 -258,-7 -467,-208 -467,-453 0,-201 139,-372 330,-434 -11,-40 -13,-83 -6,-127 8,-147 135,-266 290,-269 28,-3 57,-4 85,0z"/>
    <path class="fil5" d="M1709 2035c101,-113 251,-184 418,-180 201,4 376,119 461,284 24,4 47,11 68,21 117,9 210,101 210,212 0,28 -5,54 -15,78 187,61 316,207 307,374 -9,212 -244,384 -532,388 -59,4 -117,2 -174,-7 -85,71 -197,112 -319,108 -129,-4 -245,-60 -326,-146 -88,72 -209,113 -340,103 -244,-9 -441,-200 -441,-434 0,-192 131,-355 312,-416 -9,-40 -9,-83 0,-125 10,-141 132,-254 281,-258 30,-4 60,-5 90,-2z"/>
    <path class="fil6" d="M1725 2052c98,-106 243,-171 403,-167 192,5 358,115 441,271 25,6 48,15 69,26 111,12 199,101 199,208 0,28 -5,55 -16,81 174,60 293,198 282,357 -11,201 -234,364 -507,369 -59,5 -117,3 -174,-5 -83,66 -192,104 -310,99 -124,-5 -236,-59 -314,-141 -85,65 -200,101 -324,90 -231,-12 -417,-193 -417,-415 0,-183 124,-339 296,-399 -7,-40 -6,-82 6,-124 11,-133 128,-242 272,-246 30,-5 62,-6 94,-4z"/>
    <path class="fil7" d="M1741 2070c96,-99 235,-160 387,-154 183,6 341,109 421,258 26,7 50,18 71,31 105,14 188,99 188,203 0,29 -6,58 -17,84 160,58 270,190 257,341 -14,189 -225,343 -483,348 -58,6 -117,5 -174,-3 -82,62 -187,97 -300,91 -120,-5 -227,-57 -302,-137 -83,60 -192,91 -310,78 -216,-14 -390,-186 -390,-397 0,-174 116,-322 278,-380 -6,-40 -2,-82 11,-123 13,-127 126,-229 263,-235 32,-6 66,-8 100,-5z"/>
    <path class="fil8" d="M1756 2088c93,-92 226,-147 372,-141 173,7 323,105 400,244 27,9 52,22 73,37 99,16 177,99 177,198 0,30 -7,60 -19,87 148,58 247,182 232,324 -15,178 -214,323 -458,329 -57,7 -116,6 -173,-1 -80,58 -182,90 -291,83 -115,-6 -218,-56 -291,-132 -79,53 -183,79 -294,64 -202,-16 -365,-179 -365,-378 0,-164 109,-306 261,-362 -4,-40 2,-82 17,-122 15,-120 123,-217 255,-223 33,-7 68,-9 104,-7z"/>
    <path class="fil9" d="M1770 2107c91,-85 218,-136 357,-129 163,8 306,100 380,231 28,11 53,26 74,43 93,17 166,97 166,192 0,32 -7,63 -20,91 135,56 224,174 207,307 -17,167 -204,302 -433,309 -57,8 -116,8 -173,2 -79,53 -178,81 -282,74 -110,-7 -209,-55 -279,-128 -76,47 -175,69 -278,51 -189,-17 -340,-171 -340,-358 0,-156 101,-290 243,-345 -1,-40 7,-81 23,-121 17,-113 121,-204 246,-211 35,-8 72,-11 109,-8z"/>
    <path class="fil10" d="M1784 2126c88,-78 209,-124 340,-116 155,8 289,95 360,218 29,12 55,29 76,48 87,19 155,96 155,187 0,33 -7,65 -21,94 122,55 201,166 182,291 -18,155 -194,281 -409,289 -56,8 -114,10 -172,4 -78,48 -173,74 -273,66 -105,-9 -199,-55 -267,-124 -73,41 -166,57 -263,38 -175,-19 -314,-164 -314,-339 0,-147 94,-273 226,-327 0,-41 10,-81 29,-120 18,-106 117,-192 236,-200 37,-8 75,-11 115,-9z"/>
    <path class="fil11" d="M1796 2145c86,-71 201,-111 325,-102 145,9 272,90 340,204 30,14 56,32 78,53 81,21 144,95 144,182 0,35 -8,68 -23,98 109,53 178,158 157,274 -20,144 -184,261 -384,270 -56,8 -114,10 -173,5 -75,44 -167,66 -262,58 -101,-9 -191,-54 -256,-119 -70,34 -157,46 -247,25 -162,-21 -289,-157 -289,-321 0,-137 86,-256 208,-309 3,-40 14,-80 35,-119 21,-99 115,-179 228,-188 37,-9 78,-13 119,-11z"/>
    <path class="fil12" d="M1807 2165c83,-63 193,-99 310,-89 136,9 254,85 319,191 31,16 58,35 80,58 75,23 132,94 132,177 0,36 -8,70 -23,101 96,52 155,150 132,258 -22,132 -175,240 -360,249 -56,10 -114,13 -172,8 -74,40 -162,59 -254,49 -95,-10 -181,-52 -243,-114 -67,28 -149,35 -232,12 -148,-23 -264,-150 -264,-302 0,-128 79,-240 191,-291 5,-40 18,-80 41,-118 22,-92 112,-167 219,-176 39,-10 81,-15 124,-13z"/>
    <path class="fil12" d="M1816 2186c81,-56 185,-87 294,-77 127,11 238,81 300,178 32,18 59,39 81,64 69,25 122,93 122,172 0,37 -9,72 -25,104 83,51 132,142 107,241 -24,121 -165,220 -335,230 -56,11 -113,14 -172,10 -72,35 -157,51 -244,41 -91,-11 -172,-51 -232,-110 -64,21 -141,24 -217,-1 -133,-25 -238,-143 -238,-283 0,-119 72,-223 174,-274 6,-40 22,-79 46,-116 25,-85 109,-154 210,-165 41,-10 84,-15 129,-14z"/>
    <path class="fil13" d="M1824 2208c78,-50 176,-75 278,-64 118,12 220,76 280,165 32,19 60,42 82,69 63,27 111,92 111,167 0,38 -9,74 -26,108 70,49 108,133 82,224 -26,109 -155,199 -310,210 -55,11 -113,15 -172,12 -71,30 -152,43 -235,32 -86,-11 -163,-50 -220,-105 -61,15 -132,12 -202,-14 -119,-27 -212,-136 -212,-264 0,-110 64,-207 156,-256 8,-40 26,-79 52,-115 27,-79 107,-142 201,-153 42,-12 88,-17 135,-16z"/>
    <path class="fil14" d="M1829 2231c75,-42 167,-63 262,-51 108,12 203,71 260,152 33,20 62,46 84,74 57,29 100,91 100,162 0,39 -10,77 -27,111 56,48 85,125 57,207 -29,99 -146,179 -286,191 -55,12 -113,17 -172,14 -69,26 -147,36 -225,24 -81,-12 -154,-49 -209,-100 -58,8 -123,0 -186,-28 -105,-29 -187,-128 -187,-245 0,-101 57,-190 139,-238 10,-40 30,-79 58,-114 28,-72 103,-130 192,-142 44,-12 91,-18 140,-17z"/>
    <path class="fil14" d="M1830 2256c72,-35 159,-51 247,-38 99,13 185,66 239,138 35,23 64,50 86,80 51,31 89,90 89,157 0,40 -10,79 -28,114 43,47 61,117 31,191 -30,87 -135,158 -261,171 -54,13 -112,18 -171,16 -68,22 -142,28 -216,15 -77,-13 -145,-47 -197,-95 -55,1 -115,-11 -171,-41 -91,-31 -161,-121 -161,-226 0,-92 49,-174 121,-220 12,-41 34,-79 64,-113 30,-65 101,-117 183,-130 45,-13 94,-20 145,-19z"/>
    <path class="fil15" d="M1826 2284c70,-29 151,-39 231,-26 90,14 169,61 219,125 36,24 66,53 87,86 46,33 79,89 79,151 0,42 -11,82 -30,118 30,46 39,109 7,174 -32,76 -126,137 -237,151 -54,14 -111,20 -171,18 -66,18 -137,21 -207,7 -71,-14 -135,-46 -185,-90 -51,-5 -106,-22 -155,-55 -77,-32 -136,-113 -136,-207 0,-83 42,-157 104,-202 14,-40 38,-78 70,-112 32,-58 98,-104 174,-118 46,-14 97,-21 150,-20z"/>
    <path class="fil15" d="M1814 2315c67,-21 142,-27 216,-12 80,14 151,56 199,112 36,25 66,56 88,90 40,35 67,88 67,147 0,43 -10,83 -30,121 17,44 15,101 -18,157 -34,64 -116,117 -213,131 -53,15 -111,22 -170,20 -65,14 -133,14 -198,-1 -66,-14 -126,-45 -173,-86 -49,-11 -97,-33 -140,-67 -64,-35 -110,-107 -110,-188 0,-74 34,-141 86,-185 16,-40 42,-78 76,-110 34,-51 95,-93 165,-107 48,-15 100,-23 155,-22z"/>
    <path class="fil16" d="M1787 2353c65,-14 134,-14 201,1 71,15 133,51 179,99 37,27 68,59 90,96 34,36 56,87 56,141 0,44 -11,86 -32,124 4,43 -8,93 -43,141 -36,53 -106,96 -188,112 -53,15 -110,23 -170,22 -63,9 -127,6 -188,-10 -62,-15 -118,-44 -162,-81 -46,-18 -89,-45 -124,-81 -50,-36 -85,-99 -85,-169 0,-65 27,-124 69,-167 18,-40 46,-77 81,-109 36,-44 92,-80 157,-95 49,-16 103,-24 159,-24z"/>
    <path class="fil17" d="M1728 2408c62,-7 125,-3 185,14 61,16 116,46 158,85 39,29 70,63 92,102 28,38 45,85 45,136 0,45 -11,88 -33,127 -9,42 -31,85 -68,124 -38,42 -96,76 -163,92 -53,16 -110,25 -170,24 -62,5 -122,-1 -179,-18 -57,-16 -108,-43 -150,-76 -42,-25 -80,-56 -109,-94 -36,-39 -59,-92 -59,-150 0,-56 19,-108 51,-149 20,-40 50,-77 88,-108 37,-38 89,-68 147,-84 51,-16 106,-25 165,-25z"/>
   </g>
   <ellipse class="fil18" cx="1468" cy="2897" rx="436" ry="337"/>
  </g>
 </g>
</svg>
