<?xml version="1.0" encoding="UTF-8"?>
<!DOCTYPE svg PUBLIC "-//W3C//DTD SVG 1.1//EN" "http://www.w3.org/Graphics/SVG/1.1/DTD/svg11.dtd">
<!-- Creator: CorelDRAW X7 -->
<svg xmlns="http://www.w3.org/2000/svg" xml:space="preserve" width="52.9166mm" height="52.9166mm" version="1.1" style="shape-rendering:geometricPrecision; text-rendering:geometricPrecision; image-rendering:optimizeQuality; fill-rule:evenodd; clip-rule:evenodd"
viewBox="0 0 5292 5292"
 xmlns:xlink="http://www.w3.org/1999/xlink">
 <defs>
  <style type="text/css">
   <![CDATA[
    .str1 {stroke:#CCCCCC;stroke-width:132.29}
    .str0 {stroke:#CCCCCC;stroke-width:132.29;stroke-linecap:round}
    .fil0 {fill:none}
   ]]>
  </style>
 </defs>
 <g id="Plan_x0020_1">
  <metadata id="CorelCorpID_0Corel-Layer"/>
  <g id="_2383035691504">
   <path class="fil0 str0" d="M833 2844c160,-158 692,-15 1278,25l567 42 511 62 1005 -129"/>
   <path class="fil0 str1" d="M860 3027c160,-158 692,-16 1277,24l567 42 512 63 1004 -129"/>
   <path class="fil0 str0" d="M883 2672c160,-158 692,-15 1277,24l567 43 512 62 1004 -129"/>
   <path class="fil0 str0" d="M906 2502c159,-157 691,-15 1277,25l567 42 511 62 1005 -129"/>
   <path class="fil0 str0" d="M941 2307c159,-157 692,-15 1277,25l567 42 512 62 1004 -129"/>
   <path class="fil0 str0" d="M942 2122c160,-158 692,-15 1277,25l567 42 512 62 1004 -129"/>
   <path class="fil0 str0" d="M983 1947c159,-158 692,-15 1277,24l567 43 512 62 1004 -129"/>
   <path class="fil0 str0" d="M819 3182c160,-158 692,-16 1277,24l567 42 512 63 1004 -129"/>
  </g>
 </g>
</svg>
