<?xml version="1.0" encoding="UTF-8"?>
<!DOCTYPE svg PUBLIC "-//W3C//DTD SVG 1.1//EN" "http://www.w3.org/Graphics/SVG/1.1/DTD/svg11.dtd">
<!-- Creator: CorelDRAW X7 -->
<svg xmlns="http://www.w3.org/2000/svg" xml:space="preserve" width="52.9166mm" height="52.9166mm" version="1.1" style="shape-rendering:geometricPrecision; text-rendering:geometricPrecision; image-rendering:optimizeQuality; fill-rule:evenodd; clip-rule:evenodd"
viewBox="0 0 5292 5292"
 xmlns:xlink="http://www.w3.org/1999/xlink">
 <defs>
  <style type="text/css">
   <![CDATA[
    .fil21 {fill:#EBD038}
    .fil20 {fill:#ECD339}
    .fil19 {fill:#ECD53B}
    .fil18 {fill:#EDD73C}
    .fil17 {fill:#EEDA3E}
    .fil16 {fill:#EEDC3F}
    .fil15 {fill:#EFDE40}
    .fil14 {fill:#F0E141}
    .fil13 {fill:#F0E343}
    .fil12 {fill:#F1E544}
    .fil11 {fill:#F1E745}
    .fil10 {fill:#F2E946}
    .fil9 {fill:#F3EB47}
    .fil8 {fill:#F3ED48}
    .fil7 {fill:#F4EE49}
    .fil6 {fill:#F4F04A}
    .fil5 {fill:#F5F24B}
    .fil4 {fill:#F5F44C}
    .fil3 {fill:#F6F54D}
    .fil2 {fill:#F6F74E}
    .fil1 {fill:#F7F84F}
    .fil0 {fill:#F7FA50}
   ]]>
  </style>
 </defs>
 <g id="Plan_x0020_1">
  <metadata id="CorelCorpID_0Corel-Layer"/>
  <g id="_2382989006256">
   <ellipse class="fil0" cx="2690" cy="2945" rx="1085" ry="1098"/>
   <g>
    <path class="fil1" d="M2642 1932c292,3 557,124 751,317 102,97 187,213 248,340 61,124 98,259 106,402 7,141 -15,275 -61,396 -53,127 -130,241 -225,338 -188,191 -448,310 -734,311 -290,4 -553,-109 -745,-295 -101,-93 -185,-203 -245,-326 -60,-128 -98,-267 -106,-414 -5,-148 19,-290 66,-420 51,-127 126,-241 218,-338 186,-191 443,-310 727,-311z"/>
   </g>
   <path class="fil2" d="M2594 2015c284,7 543,126 735,313 106,95 196,207 263,331 66,116 111,243 127,377 14,129 0,253 -36,364 -52,122 -127,233 -218,327 -180,183 -428,298 -702,301 -280,8 -535,-96 -722,-269 -104,-86 -192,-189 -258,-304 -66,-123 -110,-258 -126,-399 -10,-146 7,-285 46,-413 48,-122 117,-233 204,-326 175,-184 418,-299 687,-302z"/>
   <g>
    <path class="fil3" d="M2547 2075c274,16 524,138 710,325 113,94 210,205 286,327 72,107 124,226 149,351 20,119 14,231 -12,333 -51,118 -123,225 -211,315 -172,176 -408,287 -669,292 -271,11 -517,-84 -700,-243 -108,-79 -199,-175 -270,-281 -72,-119 -122,-249 -147,-385 -15,-143 -5,-280 26,-406 44,-119 109,-227 190,-319 165,-181 395,-298 648,-309z"/>
    <path class="fil4" d="M2501 2135c263,25 504,150 684,336 120,94 225,203 309,323 78,99 137,209 170,325 27,108 30,210 13,301 -50,114 -119,217 -204,305 -164,168 -389,274 -636,282 -261,14 -500,-71 -677,-217 -112,-73 -208,-161 -284,-259 -77,-115 -134,-240 -167,-371 -21,-140 -17,-274 7,-398 40,-116 100,-222 175,-312 155,-179 371,-297 610,-315z"/>
    <path class="fil5" d="M2454 2193c253,34 485,162 660,347 126,94 238,202 332,319 83,92 149,194 191,301 33,97 44,188 36,269 -48,109 -115,209 -196,293 -156,161 -369,263 -603,272 -252,18 -482,-57 -655,-190 -115,-66 -215,-146 -297,-237 -82,-110 -146,-231 -187,-356 -26,-138 -29,-269 -13,-391 37,-113 92,-216 162,-304 144,-178 346,-297 570,-323z"/>
    <path class="fil6" d="M2408 2251c242,43 465,174 634,358 133,93 253,200 355,315 89,84 162,177 212,275 41,86 60,167 61,238 -47,105 -111,200 -189,282 -148,153 -349,251 -570,262 -243,22 -464,-44 -633,-164 -118,-59 -222,-132 -309,-214 -88,-106 -159,-222 -208,-343 -31,-134 -40,-263 -32,-383 33,-110 83,-210 147,-297 135,-175 323,-296 532,-329z"/>
    <path class="fil7" d="M2361 2308c232,51 446,185 610,369 139,93 266,198 377,311 96,76 175,161 233,250 48,75 75,145 86,206 -45,100 -107,192 -182,271 -139,145 -329,239 -538,252 -232,25 -446,-31 -610,-138 -121,-53 -229,-118 -322,-192 -93,-102 -171,-212 -228,-328 -36,-132 -52,-258 -52,-376 29,-107 75,-204 133,-289 125,-173 300,-296 493,-336z"/>
    <path class="fil8" d="M2315 2364c222,60 426,197 584,381 146,91 281,195 401,306 101,68 187,144 254,225 54,64 90,123 110,174 -44,96 -104,184 -175,260 -131,137 -309,228 -505,242 -223,29 -428,-18 -587,-112 -125,-46 -237,-103 -335,-169 -99,-98 -183,-204 -249,-314 -41,-129 -64,-253 -71,-369 25,-103 66,-198 119,-282 114,-171 275,-294 454,-342z"/>
    <path class="fil9" d="M2268 2419c212,69 407,209 560,392 153,91 295,193 423,303 107,60 200,127 275,199 62,53 105,101 135,143 -43,91 -100,175 -167,248 -124,130 -290,216 -473,232 -213,33 -410,-4 -565,-85 -128,-39 -244,-89 -347,-147 -105,-93 -196,-195 -269,-300 -47,-126 -76,-247 -92,-361 22,-100 58,-193 105,-275 104,-168 252,-294 415,-349z"/>
    <path class="fil10" d="M2222 2474c201,78 387,220 534,403 160,90 309,191 446,299 113,52 213,110 297,173 68,42 120,80 159,112 -42,87 -96,167 -160,237 -116,122 -270,204 -440,222 -204,36 -393,8 -542,-59 -131,-33 -253,-75 -361,-124 -110,-90 -208,-186 -289,-286 -52,-123 -88,-242 -111,-355 18,-96 49,-186 90,-266 95,-167 228,-294 377,-356z"/>
    <path class="fil11" d="M2175 2528c191,87 368,232 510,414 166,90 323,189 469,295 118,44 225,94 318,148 74,31 134,58 183,80 -40,82 -92,158 -153,226 -107,114 -250,192 -407,212 -194,40 -375,21 -520,-33 -134,-26 -260,-61 -373,-102 -116,-85 -220,-177 -310,-272 -57,-120 -100,-236 -131,-346 15,-94 42,-181 77,-260 84,-164 204,-293 337,-362z"/>
    <path class="fil12" d="M2129 2581c180,96 348,244 484,425 173,90 338,188 492,291 125,36 238,78 339,123 82,20 150,37 208,48 -39,78 -88,151 -146,215 -99,107 -230,181 -374,202 -185,44 -357,35 -498,-7 -137,-19 -267,-46 -385,-79 -122,-81 -233,-168 -331,-257 -62,-118 -111,-232 -150,-340 11,-90 33,-175 62,-252 74,-162 181,-292 299,-369z"/>
    <path class="fil13" d="M2083 2633c170,105 329,257 459,437 179,89 352,185 515,287 130,28 251,61 360,97 88,9 165,15 232,17 -38,73 -84,142 -138,204 -92,99 -211,169 -342,192 -175,47 -339,48 -475,19 -141,-12 -275,-32 -399,-56 -127,-77 -244,-159 -350,-244 -68,-114 -124,-226 -170,-332 7,-87 24,-170 48,-245 64,-160 156,-291 260,-376z"/>
    <path class="fil14" d="M2036 2685c160,114 310,268 435,448 186,89 366,184 537,283 136,20 264,45 381,72 95,-2 180,-6 257,-15 -36,69 -81,134 -131,193 -83,91 -191,157 -309,182 -165,51 -321,61 -453,45 -144,-5 -281,-17 -411,-33 -133,-73 -257,-150 -371,-230 -73,-111 -135,-220 -190,-325 4,-84 16,-164 34,-237 54,-158 133,-291 221,-383z"/>
    <path class="fil15" d="M1990 2737c149,122 290,280 409,459 193,88 380,181 561,278 141,13 276,29 402,47 102,-13 195,-28 281,-47 -35,65 -77,126 -124,182 -75,84 -171,146 -276,172 -156,55 -304,74 -430,72 -147,1 -289,-3 -424,-11 -138,-69 -269,-141 -392,-216 -78,-108 -147,-215 -209,-317 0,-81 7,-158 20,-230 44,-156 109,-290 182,-389z"/>
    <path class="fil16" d="M1944 2788c138,131 270,291 384,470 199,87 394,179 583,275 148,4 289,11 424,21 108,-24 210,-50 305,-78 -33,60 -73,117 -117,170 -66,76 -151,134 -243,162 -146,59 -286,87 -408,98 -150,8 -296,11 -437,11 -143,-64 -281,-132 -411,-201 -84,-106 -159,-209 -229,-310 -4,-78 -1,-152 6,-222 33,-154 85,-290 143,-396z"/>
    <path class="fil17" d="M1898 2838c128,140 250,303 359,481 206,87 408,178 606,271 153,-3 302,-5 445,-4 115,-35 225,-71 329,-110 -32,56 -69,109 -109,159 -59,69 -132,122 -211,153 -136,62 -268,100 -385,124 -154,14 -304,25 -450,34 -149,-61 -293,-124 -432,-188 -88,-102 -171,-204 -249,-302 -7,-75 -9,-147 -8,-215 24,-152 61,-289 105,-403z"/>
    <path class="fil18" d="M1851 2888c118,149 232,315 334,492 213,87 423,176 630,267 159,-11 314,-21 465,-30 122,-45 240,-92 355,-141 -31,52 -66,101 -103,148 -51,61 -112,111 -177,143 -128,65 -251,113 -363,150 -158,21 -312,40 -463,56 -155,-56 -306,-114 -453,-173 -93,-100 -182,-198 -268,-295 -10,-72 -18,-141 -22,-207 13,-150 37,-289 65,-410z"/>
    <path class="fil19" d="M1805 2937c107,158 212,327 309,504 219,86 437,174 652,263 165,-20 327,-38 487,-55 129,-57 255,-115 379,-173 -30,47 -62,93 -95,137 -43,52 -93,98 -145,132 -118,69 -233,127 -341,177 -160,28 -319,54 -475,78 -160,-52 -318,-105 -473,-159 -99,-97 -195,-193 -288,-288 -14,-68 -26,-134 -37,-199 4,-148 14,-288 27,-417z"/>
    <path class="fil20" d="M1759 2986c97,166 192,339 284,515 226,85 451,172 675,259 170,-28 340,-54 508,-81 136,-68 270,-136 403,-204 -28,42 -58,84 -88,125 -35,46 -73,87 -112,123 -108,73 -215,140 -318,203 -164,34 -327,68 -488,101 -166,-48 -331,-96 -494,-145 -104,-94 -206,-188 -307,-281 -18,-64 -35,-129 -51,-192 -7,-145 -10,-287 -12,-423z"/>
   </g>
   <polygon class="fil21" points="1713,3034 1972,3560 2669,3815 3199,3709 3626,3473 3545,3588 3466,3701 3170,3930 2669,4053 2155,3923 1829,3649 1764,3464 "/>
   <circle class="fil0" cx="1852" cy="1931" r="93"/>
   <circle class="fil0" cx="2500" cy="1680" r="93"/>
   <circle class="fil0" cx="3215" cy="1786" r="93"/>
   <circle class="fil0" cx="3664" cy="2130" r="93"/>
   <circle class="fil0" cx="3929" cy="2633" r="93"/>
   <circle class="fil0" cx="3982" cy="3254" r="93"/>
   <circle class="fil0" cx="3744" cy="3770" r="93"/>
   <circle class="fil0" cx="1998" cy="4035" r="93"/>
   <circle class="fil0" cx="1574" cy="3585" r="93"/>
   <circle class="fil0" cx="1548" cy="2368" r="93"/>
   <circle class="fil0" cx="1442" cy="2844" r="93"/>
   <circle class="fil0" cx="2752" cy="4220" r="93"/>
   <circle class="fil0" cx="3334" cy="4061" r="93"/>
  </g>
 </g>
</svg>
